# Blender v2.83.5 OBJ File: ''
# www.blender.org
o Sphere
v -0.223591 0.647849 -0.754082
v 0.439727 0.605126 -0.715294
v -0.321139 0.152368 -0.975815
v -0.218405 0.942842 -0.317146
v -0.188929 0.987324 0.243577
v 0.309862 0.943318 -0.282181
v 0.729791 0.295075 -0.673412
v 0.181321 0.021381 -0.972044
v 0.613433 0.570785 -1.235393
v 0.920339 0.090717 -0.481215
v 0.994283 -0.325682 -0.007848
v 0.562324 -0.555042 -0.648105
v 0.765739 0.691699 0.047114
v 0.723630 0.984936 -0.437279
v 0.937913 0.302695 0.287052
v -0.035535 -1.024774 0.078377
v 0.561009 -0.859551 -0.067263
v 0.231649 -0.952664 0.280133
v 0.758648 -0.455126 0.554121
v 0.499705 0.021455 0.896736
v 0.536545 0.499734 0.706142
v 0.968880 0.354372 0.890167
v 0.114305 -0.658113 0.793022
v 0.330811 0.868611 0.444585
v 0.075435 0.206945 1.022576
v 0.370296 0.784302 1.045922
v -0.410482 -0.311945 0.895952
v -0.365299 0.515348 0.825499
v -0.353362 0.170688 1.235903
v -0.562735 -0.678889 0.541589
v -0.588892 0.961160 0.645659
v -0.902941 0.035763 0.501304
v -0.921502 -0.393093 0.198452
v -1.006047 -0.074136 -0.239944
v -0.529483 -0.832290 -0.315235
v -0.541159 -0.853842 0.122168
v -0.845024 0.007266 -0.575032
v -0.510430 -0.502699 -0.751821
v -0.768860 0.643993 -0.294522
v 0.090699 -0.599043 -0.824769
v 0.182749 -0.909597 -0.430728
v 0.639303 -1.096065 -0.550031
v -1.318934 0.440975 0.113778
v 1.417772 0.076452 -0.092883
v 0.207557 1.231731 0.164383
v 0.509818 -0.934116 0.715805
v 0.318417 -0.266894 1.385102
v -0.823055 -0.402743 0.818592
v -0.759100 0.586728 0.361253
v -0.941879 -0.876032 0.371327
v -0.563848 1.173254 -0.138672
v -1.008343 -0.659228 -0.592983
v -0.850051 0.715841 -1.001197
v -0.191447 -0.348586 -1.320521
v -0.200941 -1.393249 -0.360613
vn 0.0789 0.3942 -0.9156
vn 0.0044 0.9968 -0.0793
vn 0.0863 0.7976 -0.5969
vn 0.5830 -0.6752 -0.4520
vn 0.5529 -0.2360 -0.7991
vn 0.8303 -0.3477 -0.4356
vn 0.1046 0.8548 0.5084
vn 0.9327 0.3415 -0.1156
vn 0.2654 -0.9641 -0.0068
vn 0.7556 -0.6323 0.1712
vn 0.5561 -0.7663 0.3218
vn 0.9257 -0.0894 0.3675
vn 0.8084 0.0162 0.5885
vn -0.2535 0.3749 0.8917
vn 0.4227 -0.3663 0.8290
vn -0.8860 0.4476 0.1209
vn -0.1218 -0.8725 0.4732
vn 0.0210 -0.2555 0.9666
vn -0.9949 0.0612 0.0803
vn -0.2583 -0.6135 0.7463
vn 0.5800 0.5377 0.6119
vn -0.7772 -0.3402 0.5293
vn 0.7554 0.5314 -0.3834
vn -0.8375 -0.5059 -0.2066
vn -0.7743 -0.6306 -0.0517
vn -0.8026 -0.3624 -0.4737
vn -0.8923 0.2671 -0.3639
vn -0.4285 0.7512 -0.5021
vn 0.1015 0.3626 -0.9264
vn 0.3598 -0.2649 -0.8946
vn 0.3034 -0.7126 -0.6325
vn 0.5569 -0.0955 -0.8250
vn -0.3277 -0.2135 -0.9204
vn -0.6241 0.1478 -0.7673
vn 0.7563 -0.5801 -0.3024
vn 0.2388 -0.9642 -0.1157
vn 0.4819 -0.3365 0.8090
vn 0.4371 0.8959 0.0795
vn 0.9454 0.3257 0.0062
vn 0.7108 0.5694 0.4130
vn 0.6400 0.6488 0.4116
vn -0.4902 -0.7995 0.3470
vn 0.3935 0.3140 0.8640
vn 0.8676 -0.4964 0.0289
vn 0.0992 0.6326 0.7681
vn -0.0598 0.7841 0.6178
vn -0.1502 -0.8665 0.4761
vn -0.2677 0.5323 0.8031
vn -0.5780 0.1005 0.8098
vn -0.2709 -0.8933 0.3587
vn -0.6899 0.3423 0.6379
vn 0.2858 -0.8791 0.3814
vn -0.5619 0.8233 0.0803
vn -0.1805 -0.7926 -0.5825
vn -0.9874 -0.0606 0.1463
vn -0.3241 -0.9444 -0.0552
vn -0.6978 0.0601 0.7137
vn -0.5642 -0.4249 0.7079
vn -0.5856 -0.1056 -0.8037
vn -0.7294 -0.6840 0.0143
vn -0.6265 0.3758 -0.6829
vn -0.1898 -0.9156 -0.3546
vn -0.1616 -0.0148 -0.9867
vn 0.0363 0.8280 -0.5595
vn -0.5612 0.6471 -0.5161
vn 0.0712 0.9931 0.0928
vn 0.3776 0.3153 -0.8706
vn 0.7040 0.6843 0.1900
vn -0.8142 0.4944 -0.3046
vn 0.0595 -0.7979 -0.5998
vn -0.3994 0.4748 -0.7842
vn -0.7721 -0.6042 0.1970
vn -0.2871 0.9539 0.0876
vn -0.4521 0.3288 0.8291
vn 0.2974 0.1630 0.9407
vn -0.7659 -0.1301 0.6297
vn 0.4070 -0.5577 0.7234
vn 0.2450 0.7459 0.6193
vn -0.3109 0.7017 -0.6411
vn 0.8561 -0.4057 -0.3200
vn 0.5786 -0.8146 0.0401
vn 0.3543 0.9300 -0.0979
vn 0.6738 -0.3700 0.6396
vn 0.8696 0.4936 0.0121
vn -0.5162 0.6607 -0.5450
vn -0.1842 0.5605 0.8074
vn 0.4688 -0.6256 -0.6235
vn 0.2326 0.9362 -0.2636
vn -0.4969 -0.2738 -0.8235
vn -0.5183 0.3075 0.7980
vn -0.8790 0.0941 -0.4675
vn 0.1590 0.5873 -0.7936
vn 0.7819 -0.2498 -0.5712
vn 0.7266 -0.5265 -0.4415
vn -0.6587 -0.4354 0.6137
vn 0.7814 -0.5907 0.2014
vn -0.2587 -0.8834 0.3908
vn 0.9843 0.1552 0.0836
vn 0.4651 0.6759 0.5717
vn -0.9004 -0.1489 0.4088
vn 0.0197 -0.6987 0.7151
vn -0.8319 -0.4167 -0.3664
vn 0.5181 0.8501 -0.0947
vn -0.2305 0.3560 -0.9056
vn 0.7301 0.6834 0.0028
vn -0.1971 -0.7783 -0.5962
s 1
f 1//1 2//1 3//1
f 4//2 5//2 6//2
f 6//3 2//3 1//3
f 7//4 8//4 9//4
f 8//5 7//5 10//5
f 10//6 11//6 12//6
f 6//7 13//7 14//7
f 13//8 15//8 10//8
f 16//9 17//9 18//9
f 11//10 19//10 17//10
f 17//11 19//11 18//11
f 15//12 19//12 11//12
f 15//13 20//13 19//13
f 21//14 20//14 22//14
f 20//15 23//15 19//15
f 24//16 25//16 26//16
f 23//17 16//17 18//17
f 25//18 27//18 23//18
f 28//19 27//19 29//19
f 27//20 30//20 23//20
f 28//21 5//21 31//21
f 32//22 33//22 30//22
f 10//23 2//23 13//23
f 33//24 34//24 35//24
f 33//25 35//25 36//25
f 37//26 38//26 34//26
f 34//27 39//27 37//27
f 4//28 1//28 39//28
f 3//29 2//29 8//29
f 40//30 8//30 12//30
f 40//31 12//31 41//31
f 8//32 10//32 12//32
f 41//33 12//33 42//33
f 39//34 34//34 43//34
f 17//35 12//35 11//35
f 16//36 41//36 17//36
f 15//37 11//37 44//37
f 6//38 24//38 13//38
f 24//39 6//39 45//39
f 13//40 21//40 15//40
f 13//41 24//41 21//41
f 23//42 18//42 46//42
f 20//43 21//43 25//43
f 23//44 20//44 47//44
f 24//45 28//45 25//45
f 28//46 24//46 5//46
f 16//47 23//47 30//47
f 27//48 32//48 48//48
f 27//49 28//49 32//49
f 16//50 30//50 36//50
f 32//51 28//51 49//51
f 36//52 30//52 50//52
f 49//53 5//53 39//53
f 35//54 40//54 41//54
f 33//55 32//55 34//55
f 36//56 35//56 16//56
f 39//57 5//57 51//57
f 35//58 34//58 52//58
f 37//59 3//59 38//59
f 3//60 39//60 53//60
f 37//61 39//61 3//61
f 40//62 38//62 54//62
f 35//63 41//63 55//63
f 1//64 4//64 6//64
f 5//65 49//65 31//65
f 39//66 1//66 53//66
f 1//67 3//67 53//67
f 2//68 7//68 9//68
f 8//69 2//69 9//69
f 38//70 35//70 52//70
f 34//71 38//71 52//71
f 34//72 32//72 43//72
f 49//73 39//73 43//73
f 32//74 49//74 43//74
f 19//75 23//75 46//75
f 49//76 28//76 31//76
f 27//77 25//77 29//77
f 25//78 28//78 29//78
f 2//79 6//79 14//79
f 13//80 2//80 14//80
f 20//81 15//81 22//81
f 15//82 21//82 22//82
f 25//83 21//83 26//83
f 21//84 24//84 26//84
f 6//85 5//85 45//85
f 5//86 24//86 45//86
f 11//87 10//87 44//87
f 10//88 15//88 44//88
f 33//89 36//89 50//89
f 30//90 33//90 50//90
f 38//91 3//91 54//91
f 3//92 8//92 54//92
f 8//93 40//93 54//93
f 18//94 19//94 46//94
f 16//95 35//95 55//95
f 41//96 16//96 55//96
f 17//97 41//97 42//97
f 12//98 17//98 42//98
f 20//99 25//99 47//99
f 25//100 23//100 47//100
f 30//101 27//101 48//101
f 32//102 30//102 48//102
f 5//103 4//103 51//103
f 4//104 39//104 51//104
f 10//105 7//105 2//105
f 35//106 38//106 40//106
