# Blender v2.83.5 OBJ File: ''
# www.blender.org
o Cube_Cube.001
v -1.178150 -0.546289 -0.567028
v -2.661512 0.440771 -0.405871
v -1.072328 0.472266 -0.709015
v -0.724175 -0.363759 -3.569365
v -0.653580 0.295617 -3.569457
v -0.092842 -0.545634 -1.150407
v 1.759869 0.466981 -1.152757
v 5.591086 -0.408092 -1.789145
v 2.377728 0.462758 -0.380124
v 2.363974 -0.537964 -0.371177
v -2.662813 0.308556 0.464481
v -1.178150 -0.546289 0.567028
v -1.072328 0.472266 0.709015
v -2.661373 -0.511773 0.360399
v -0.724175 -0.363761 3.569365
v -0.180622 -0.535026 1.295913
v -0.653580 0.295615 3.569457
v 1.759869 -0.535026 1.152757
v -0.180621 0.466981 1.295913
v 5.591086 -0.408092 1.789145
v 1.759869 0.466981 1.152757
v 2.368996 0.464226 0.375653
v 5.581250 0.339753 1.786275
v 2.377728 -0.539249 0.380124
v -2.662813 -0.376600 -0.464481
v -0.180621 0.466981 -1.295913
v 5.581250 0.339753 -1.786275
vn -0.1839 -0.1169 -0.9760
vn -0.9861 0.0824 -0.1441
vn 0.9605 -0.1029 -0.2584
vn -0.1142 0.2067 -0.9717
vn 0.4022 0.0025 0.9156
vn 0.4022 0.0027 0.9156
vn -0.1386 -0.1229 0.9827
vn -0.1395 -0.1245 0.9824
vn -0.1385 -0.1226 0.9827
vn -1.0000 -0.0000 0.0001
vn -1.0000 0.0011 0.0021
vn -1.0000 -0.0015 -0.0017
vn -0.9861 0.0824 0.1441
vn 0.9656 -0.1034 0.2386
vn 0.0736 -0.0000 0.9973
vn -0.1638 0.0005 0.9865
vn -0.1636 0.0011 0.9865
vn -0.1639 -0.0000 0.9865
vn 0.4017 -0.0001 -0.9158
vn 0.4020 0.0012 -0.9157
vn 0.4021 0.0018 -0.9156
vn 0.9998 0.0086 -0.0183
vn 0.0187 -0.9986 -0.0490
vn -0.0348 -0.9972 -0.0659
vn -0.1230 -0.9794 -0.1603
vn -0.0144 -0.9979 -0.0633
vn 0.0016 -1.0000 0.0083
vn 0.0004 -1.0000 0.0058
vn 0.0009 -1.0000 0.0073
vn 0.0284 -0.9992 0.0282
vn -0.0383 0.9970 -0.0672
vn 0.0302 0.9994 -0.0187
vn -0.0115 0.9990 0.0437
vn -0.1239 0.9811 0.1488
vn -0.0383 0.9970 0.0672
vn -0.0606 0.0715 -0.9956
vn -1.0000 0.0014 0.0020
vn -0.9830 0.1052 -0.1504
vn 0.9767 0.0549 -0.2073
vn 0.0729 -0.1357 -0.9881
vn -0.1635 0.0016 -0.9865
vn 0.4020 0.0018 0.9156
vn 0.9998 -0.0136 0.0116
vn -0.1397 -0.1249 0.9823
vn -0.9830 0.1052 0.1504
vn 0.9790 -0.0000 0.2037
vn -0.1635 0.0016 0.9865
vn 0.4016 -0.0006 -0.9158
vn 0.0022 -1.0000 0.0029
vn 0.0003 -0.9993 0.0376
vn 0.0019 -1.0000 -0.0017
vn 0.0020 -1.0000 0.0010
vn -0.0371 -0.9971 0.0662
vn 0.0030 1.0000 -0.0024
vn -0.0010 1.0000 0.0029
vn 0.0005 1.0000 0.0033
vn -0.0004 1.0000 0.0058
vn 0.0029 1.0000 -0.0019
vn -0.0004 0.9996 -0.0277
vn -0.0003 1.0000 -0.0038
vn 0.0023 1.0000 0.0035
vn 0.0005 1.0000 -0.0016
vn 0.0028 1.0000 0.0048
vn 0.0300 0.9994 0.0199
s 1
f 1//1 2//1 3//1
f 3//2 4//2 1//2
f 5//3 6//3 4//3
f 7//4 8//4 6//4
f 8//5 9//5 10//6
f 11//7 12//8 13//9
f 2//10 14//11 11//12
f 15//13 13//13 12//13
f 16//14 17//14 15//14
f 18//15 19//15 16//15
f 20//16 21//17 18//18
f 20//19 22//20 23//21
f 10//22 22//22 24//22
f 8//23 10//23 6//23
f 1//24 4//24 6//24
f 14//25 25//25 1//25
f 12//26 14//26 10//26
f 24//27 18//28 16//29
f 24//30 20//30 18//30
f 5//31 3//31 26//31
f 9//32 27//32 7//32
f 3//33 2//33 22//33
f 2//34 11//34 13//34
f 13//35 17//35 19//35
f 1//36 25//36 2//36
f 25//37 14//11 2//10
f 3//38 5//38 4//38
f 5//39 26//39 6//39
f 26//40 7//40 6//40
f 7//41 27//41 8//41
f 8//5 27//42 9//5
f 9//43 22//43 10//43
f 11//7 14//44 12//8
f 15//45 17//45 13//45
f 16//46 19//46 17//46
f 18//15 21//15 19//15
f 20//16 23//47 21//17
f 20//19 24//48 22//20
f 10//49 1//49 6//49
f 10//50 14//50 1//50
f 10//51 24//27 12//52
f 12//52 24//27 16//29
f 12//53 16//53 15//53
f 3//54 9//55 26//56
f 9//55 7//57 26//56
f 22//58 9//55 3//54
f 22//59 2//59 13//59
f 21//60 22//61 19//62
f 22//61 13//63 19//62
f 22//64 21//64 23//64
